<svg width="147" height="29" xmlns="http://www.w3.org/2000/svg"><g fill="#FF595A" fill-rule="evenodd"><g opacity=".6"><path d="M73.079 4.58v6.08l14.57 13.796v-.338l-.002-5.75zM50.461 12.115l-2.014 4.405h7.697l-.012-4.405zM24.747 28.475h4.578V16.868l-4.578-4.338zM135.173 23.953l-4.579 4.522h16.382v-4.522zM104.743 23.953l-2.137 4.522h17.566l-2.125-4.522z"/></g><path d="M24.747 12.53V.554h4.578v16.314zM68.5.24v28.235h4.579V4.58zM135.173.554v23.399l-4.579 4.522V.554zM56.132 12.115l.012 4.405v6.45c-1.578.983-3.671 1.493-5.724 1.493-5.533 0-9.671-4.364-9.671-9.949 0-5.584 4.145-9.948 9.671-9.948 2.765 0 5.534 1.1 7.264 2.95l2.961-3.226C58.078 1.615 54.407.24 50.42.24a14.223 14.223 0 0 0-10.174 4.14 14.113 14.113 0 0 0-4.158 10.134 14.113 14.113 0 0 0 4.157 10.134 14.223 14.223 0 0 0 10.173 4.141c3.948 0 7.699-1.337 10.304-3.578V12.115h-4.59zM87.65 24.456l4.575 4.333V.554h-4.578v17.814zM111.41.24l-13.7 28.235h4.896l8.804-18.641 8.762 18.641h4.934z"/><path d="M9.434 28.79c-4.223 0-7.658-1.887-9.434-4.758l3.474-2.91c1.302 1.769 3.474 3.355 5.921 3.355l.039 4.312zM9.395 4.565c-1.893 0-3.71 1.102-3.71 3.03 0 1.73 1.155 2.993 3.71 4.131v4.89l-1.973-.842c-4.225-1.85-6.315-4.51-6.315-8.142C1.107 3.152 5.17.24 9.434.24l-.039 4.326z" fill-rule="nonzero"/><path d="M9.395 11.727v4.89h.022l.216.09c2.762 1.22 4.066 2.44 4.066 4.523 0 2.006-1.58 3.226-4.304 3.226l.039 4.314c5.408 0 8.923-3.224 8.923-7.943 0-3.892-2.606-6.332-6.436-7.983l-2.165-.983c-.123-.05-.24-.103-.359-.156l-.002.022zM14.132 7.044l3.16-3.264C15.236 1.342 12.671.24 9.435.24l-.041 4.326c2.014 0 3.277.747 4.737 2.478" opacity=".6"/></g></svg>